<svg id="Layer_1" xmlns="http://www.w3.org/2000/svg" viewBox="0 0 1395.5 512"><style>.st0{fill-rule:evenodd;clip-rule:evenodd}.st1{fill:#FFF}</style><path class="st0" d="M56.2 64h1283.1c31 0 56.2 25.2 56.2 56.2v271.6c0 31-25.2 56.2-56.2 56.2H56.2C25.2 448 0 422.8 0 391.8V120.2C0 89.2 25.2 64 56.2 64z"/><path class="st1" d="M175.5 242.5c0-16.2-11.1-24.7-29.5-24.7h-23.5v80.4h15.4v-29.6h6.9c18.3.1 30.7-8.7 30.7-26.1zm-15.2.4c0 9.2-5.8 13.3-15.7 13.3h-6.8v-26h7.3c10 0 15.2 4.3 15.2 12.7zM234.2 270.2c0-18.3-11.2-29.4-26.6-29.4-15.3 0-26.5 11.1-26.5 29.4s11.1 29.2 26.3 29.2c15.5 0 26.8-10.9 26.8-29.2zm-13.6 0c0 10.5-4.4 17.8-13.1 17.8-8.2 0-12.7-7.6-12.7-17.8 0-10.5 4.4-17.9 12.7-17.9 8.4-.1 13.1 7.5 13.1 17.9zM320.2 242h-13.3l-9.7 37.1-10.1-37.1h-12.4l-10.1 37.3-9.9-38.1-14.3 1.8 16.8 55.4H270l10.2-37.2 10.4 37.2h12.8zM376.2 292.5l-1.6-11c-6.2 4.3-12.1 7-19.3 7-8.6 0-14.6-4.7-15.3-15.7h36.2c0-.8.1-2.2.1-3.4 0-16-7.6-28.7-24.5-28.7-14.7 0-25.6 11.1-25.6 29.4 0 20.3 11.8 29.2 27.5 29.2 9.1.1 16.5-2.6 22.5-6.8zm-24.7-42c6.8 0 10.3 4.9 11.2 13.6h-22.5c1.1-9.1 5.7-13.6 11.3-13.6zM422.8 254.7l-2.2-13.9c-8.7.5-14.3 5.9-18.1 12.5l-1.7-11.3h-11.9v56.3h14V266c3.9-6.1 11.1-10.7 19.9-11.3zM478.4 292.5l-1.6-11c-6.2 4.3-12.1 7-19.3 7-8.6 0-14.6-4.7-15.3-15.7h36.2c0-.8.1-2.2.1-3.4 0-16-7.6-28.7-24.5-28.7-14.7 0-25.6 11.1-25.6 29.4 0 20.3 11.8 29.2 27.5 29.2 9.1.1 16.4-2.6 22.5-6.8zm-24.7-42c6.8 0 10.3 4.9 11.2 13.6h-22.5c1-9.1 5.7-13.6 11.3-13.6zM539.8 298.2v-84.1l-14 2.2v27.1c-3.4-1.2-7.7-2.1-13.1-2.1-13.1 0-24.6 9.3-24.6 30.3 0 19 9.4 27.7 21.2 27.7 7.8 0 13.3-4.2 17.2-9l1.2 7.8h12.1zm-14-18.9c-3.7 4.7-7.7 7.7-12.8 7.7-6.2 0-10.8-5.1-10.8-16.1 0-12.4 5.4-18.3 12.7-18.3 4.8 0 7.5.8 11 2.4v24.3zM632.5 268.5c0-18.9-9.3-27.7-21.2-27.7-7.1 0-12.4 3.7-16 7.5v-34.1l-14 2.2v78.9c7 2.3 14.3 3.7 23.1 3.7 16.8-.1 28.1-9.7 28.1-30.5zm-14.1.9c0 12.8-5.4 18.2-14.2 18.2-4 0-5.9-.5-8.9-1.5v-25.5c3.5-4.2 7.7-7.3 12.4-7.3 6.3-.1 10.7 5.2 10.7 16.1zM693 242h-14.1l-12.4 39.2-13.1-40-14.6 1.9 20.4 55.5-.8 2.3c-2.2 5.2-5.5 7.1-9.9 7.1-2.4 0-4.4-.4-6.2-.8l1.9 11.8c1.3.4 2.7.6 5.7.6 10.1 0 16.7-4.1 21.4-17.6l21.7-60z"/><g><path class="st1" d="M1213.7 251.2c1-16 5.3-24.7 13.6-24.7 8.1 0 12.3 8.8 12.9 24.7h-26.5zm60 9.5c0-17.9-3.9-33.2-11.6-43.2-7.8-10.1-19.5-15.3-34.4-15.3-30.5 0-49.4 22.5-49.4 58.6 0 20.2 5.1 35.4 15 45.1 9 8.7 21.8 13 38.4 13 15.3 0 29.5-3.6 38.4-9.5l-3.9-24.6c-8.8 4.8-19.1 7.4-30.6 7.4-6.9 0-11.7-1.4-15.2-4.5-3.8-3.2-5.9-7.2-6.6-14.6h59.4c.3-1.7.5-9.8.5-12.4zM1125.8 283.8c-2.9 5.5-7.4 8.4-12.6 8.4-3.6 0-6.8-.7-9.7-2.2v-53.4c6.1-6.4 11.6-7.1 13.6-7.1 9.1 0 13.6 9.8 13.6 29 0 11-1.6 19.5-4.9 25.3zm29.7-69.3c-6.4-8.2-15.2-12.3-26.4-12.3-10.4 0-19.5 4.3-28 13.4l-1.9-11.3h-31.5v154.9l35.8-5.9v-37c5.5 1.7 11.1 2.6 16.2 2.6 9 0 22-2.3 32.1-13.3 9.7-10.5 14.6-26.9 14.6-48.4 0-19-3.7-33.5-10.9-42.7zM1014.7 204.4h36v112.4h-36V204.4zm18.1-9.1c10.4 0 18.8-8.5 18.8-18.9 0-10.5-8.4-18.9-18.8-18.9-10.5 0-18.9 8.4-18.9 18.9-.1 10.4 8.3 18.9 18.9 18.9zM995.7 202.8c-10.1 0-17.9 5.3-21.1 14.8l-2.2-13.3h-31.3v112.4H977v-72.9c4.5-5.5 10.5-7.5 19.2-7.5 1.9 0 3.9 0 6.4.4v-33.1c-2.5-.5-4.7-.8-6.9-.8zM924.7 232.4l4.3-28h-22.9v-31.1l-30.8 5.1-4.4 26-10.8 1.8-4 26.3h14.8v50.7c0 13.6 3.5 23 10.5 28.7 5.9 4.8 14.4 7.1 26.4 7.1 9.2 0 14.9-1.6 18.8-2.6v-28.2c-2.2.6-7.1 1.6-10.4 1.6-7.1 0-10.1-3.6-10.1-11.8v-45.5h18.6zM817.7 246.7c-10.5-3.9-16.3-6.9-16.3-11.7 0-4 3.3-6.4 9.2-6.4 10.8 0 22 4.2 29.6 7.9l4.3-26.7c-6.1-2.9-18.5-7.7-35.7-7.7-12.1 0-22.2 3.2-29.5 9.1-7.5 6.2-11.4 15.2-11.4 26 0 19.6 12 28 31.5 35.1 12.6 4.5 16.8 7.7 16.8 12.6 0 4.8-4 7.5-11.4 7.5-9.1 0-24.1-4.5-33.9-10.3l-4.3 27c8.4 4.8 24 9.7 40.2 9.7 12.9 0 23.5-3 30.8-8.8 8.1-6.4 12.3-15.7 12.3-27.9-.2-19.9-12.4-28.3-32.2-35.4z"/></g></svg>